<?xml version="1.0" encoding="utf-8"?>
<!-- Generator: Adobe Illustrator 20.1.0, SVG Export Plug-In . SVG Version: 6.00 Build 0)  -->
<svg version="1.1" id="Layer_1" xmlns="http://www.w3.org/2000/svg" xmlns:xlink="http://www.w3.org/1999/xlink" x="0px" y="0px"
	 viewBox="0 0 50.3 7" style="enable-background:new 0 0 50.3 7;" xml:space="preserve">
<style type="text/css">
	.st0{fill:#414042;}
	.st1{fill:#00AEEF;}
	.st2{opacity:0.4;}
	.st3{clip-path:url(#SVGID_2_);fill-rule:evenodd;clip-rule:evenodd;fill:url(#SVGID_3_);}
	.st4{opacity:0.3;}
	.st5{clip-path:url(#SVGID_5_);fill-rule:evenodd;clip-rule:evenodd;fill:url(#SVGID_6_);}
	.st6{fill:#FFFFFF;}
</style>
<g>
	<g>
		<path class="st0" d="M48.9,2.5c0.9,0,1.4,0.7,1.4,1.5c0,0.1,0,0.3,0,0.3h-2.2c0.1,0.6,0.5,0.8,0.9,0.8c0.5,0,0.9-0.4,0.9-0.4
			l0.3,0.5c0,0-0.5,0.5-1.3,0.5c-1,0-1.7-0.8-1.7-1.6C47.3,3.2,48,2.5,48.9,2.5z M49.5,3.7c0-0.4-0.3-0.6-0.6-0.6
			c-0.4,0-0.7,0.2-0.8,0.6H49.5z"/>
		<path class="st0" d="M19.3,2.5c0.9,0,1.4,0.7,1.4,1.5c0,0.1,0,0.3,0,0.3h-2.2c0.1,0.6,0.5,0.8,0.9,0.8c0.5,0,0.9-0.4,0.9-0.4
			l0.3,0.5c0,0-0.5,0.5-1.3,0.5c-1,0-1.7-0.8-1.7-1.6C17.8,3.2,18.4,2.5,19.3,2.5z M19.9,3.7c0-0.4-0.3-0.6-0.6-0.6
			c-0.4,0-0.7,0.2-0.8,0.6H19.9z"/>
		<path class="st0" d="M28.4,2.5c0.9,0,1.4,0.7,1.4,1.5c0,0.1,0,0.3,0,0.3h-2.2c0.1,0.6,0.5,0.8,0.9,0.8c0.5,0,0.9-0.4,0.9-0.4
			l0.3,0.5c0,0-0.5,0.5-1.3,0.5c-1,0-1.7-0.8-1.7-1.6C26.8,3.2,27.5,2.5,28.4,2.5z M29,3.7c0-0.4-0.3-0.6-0.6-0.6
			c-0.4,0-0.7,0.2-0.8,0.6H29z"/>
		<path class="st0" d="M40.9,3.4c0-0.1,0-0.1-0.1-0.1h-0.2V2.6h0.7c0.3,0,0.4,0.1,0.4,0.4V3c0,0.1,0,0.1,0,0.1h0
			c0.1-0.3,0.5-0.7,1.1-0.7c0.7,0,1.1,0.4,1.1,1.2v1.2c0,0.1,0,0.1,0.1,0.1h0.2v0.7h-0.7c-0.3,0-0.4-0.1-0.4-0.4V3.9
			c0-0.4-0.1-0.6-0.5-0.6c-0.4,0-0.7,0.3-0.8,0.6c0,0.1-0.1,0.3-0.1,0.4v1.4h-0.8V3.4z"/>
		<path class="st0" d="M38.6,2.5c1,0,1.7,0.7,1.7,1.6c0,1-0.8,1.6-1.7,1.6c-1,0-1.7-0.7-1.7-1.6C36.9,3.2,37.6,2.5,38.6,2.5z
			 M38.6,5.1c0.5,0,0.9-0.4,0.9-1c0-0.6-0.4-1-0.9-1c-0.5,0-0.9,0.4-0.9,1C37.7,4.7,38.1,5.1,38.6,5.1z"/>
		<path class="st0" d="M36.5,4.2c0,1-0.5,1.6-1.4,1.6c-0.7,0-0.9-0.4-0.9-0.4h0c0,0,0,0.1,0,0.3V7h-0.8V3.4c0-0.1,0-0.1-0.1-0.1H33
			V2.6h0.7c0.3,0,0.4,0.1,0.4,0.3c0,0.1,0,0.1,0,0.1h0c0,0,0.3-0.5,1-0.5C35.9,2.5,36.5,3.2,36.5,4.2z M34.9,5.1
			c0.5,0,0.8-0.4,0.8-1c0-0.6-0.4-1-0.8-1c-0.5,0-0.8,0.5-0.8,1C34.2,4.8,34.5,5.1,34.9,5.1z"/>
		<path class="st0" d="M30.6,4.7c0,0,0.4,0.5,0.9,0.5c0.2,0,0.4-0.1,0.4-0.3c0-0.4-1.7-0.4-1.7-1.5c0-0.6,0.6-0.9,1.2-0.9
			c0.4,0,1.1,0.1,1.1,0.7v0.3h-0.7V3.3c0-0.1-0.2-0.2-0.4-0.2c-0.3,0-0.5,0.1-0.5,0.3c0,0.5,1.7,0.4,1.7,1.4c0,0.6-0.5,1-1.2,1
			c-0.9,0-1.3-0.6-1.3-0.6L30.6,4.7z"/>
		<path class="st0" d="M44.9,4.7c0,0,0.4,0.5,0.9,0.5c0.2,0,0.4-0.1,0.4-0.3c0-0.4-1.7-0.4-1.7-1.5c0-0.6,0.6-0.9,1.2-0.9
			c0.4,0,1.1,0.1,1.1,0.7v0.3h-0.7V3.3c0-0.1-0.2-0.2-0.4-0.2c-0.3,0-0.5,0.1-0.5,0.3c0,0.5,1.7,0.4,1.7,1.4c0,0.6-0.5,1-1.2,1
			c-0.9,0-1.3-0.6-1.3-0.6L44.9,4.7z"/>
		<path class="st0" d="M22.8,5.1c-0.2,0-0.6-0.1-0.6-0.6V3.2h0.7V2.9c0-0.2-0.1-0.3-0.3-0.3h-0.2h-0.2V1.7h-0.8v0.9H21v0.6h0.4v1.4
			c0,1.1,0.9,1.2,1.3,1.2c0.1,0,0.2,0,0.2,0V5.1C22.9,5.1,22.9,5.1,22.8,5.1z"/>
		<path class="st0" d="M15.4,1.3c1.1,0,1.6,0.6,1.6,0.6l-0.5,0.6c0,0-0.5-0.4-1.1-0.4c-0.8,0-1.4,0.6-1.4,1.5c0,1,0.7,1.5,1.4,1.5
			c0.7,0,1.1-0.5,1.1-0.5V4.3c0-0.1,0-0.1-0.1-0.1h-0.3V3.4h0.7c0.3,0,0.4,0.1,0.4,0.4v1.9h-0.7V5.5c0-0.1,0-0.2,0-0.2h0
			c0,0-0.5,0.5-1.3,0.5c-1.1,0-2.1-0.9-2.1-2.3C13.2,2.3,14.2,1.3,15.4,1.3z"/>
		<path class="st0" d="M23.4,1.3h1.6c0.8,0,1.4,0.5,1.4,1.3c0,0.8-0.5,1.1-0.7,1.2v0c0,0,0.1,0.1,0.2,0.2l0.4,0.8
			C26.3,5,26.4,5,26.5,5h0.1v0.7h-0.4c-0.3,0-0.5,0-0.6-0.3L25,4.3c-0.1-0.2-0.2-0.2-0.4-0.2h-0.4v1.6h-0.8V1.3z M24.8,3.4
			c0.4,0,0.6-0.3,0.6-0.7c0-0.4-0.2-0.7-0.6-0.7h-0.7v1.4H24.8z"/>
	</g>
	<g>
		<g>
			<path class="st1" d="M10.9,6.5c0,0.3-0.2,0.5-0.5,0.5h-10C0.2,7,0,6.8,0,6.5v-6C0,0.2,0.2,0,0.5,0h10c0.3,0,0.5,0.2,0.5,0.5V6.5z
				"/>
		</g>
		<g class="st2">
			<defs>
				<path id="SVGID_1_" class="st2" d="M10.9,6.5c0,0.3-0.2,0.5-0.5,0.5h-10C0.2,7,0,6.8,0,6.5v-6c0-0.3,3.4,4.8,6.4,4.4
					c2.9-0.3,4.6-4.7,4.6-4.4V6.5z"/>
			</defs>
			<clipPath id="SVGID_2_">
				<use xlink:href="#SVGID_1_"  style="overflow:visible;"/>
			</clipPath>
			<radialGradient id="SVGID_3_" cx="10.8851" cy="6.9631" r="9.6825" gradientUnits="userSpaceOnUse">
				<stop  offset="0" style="stop-color:#006991"/>
				<stop  offset="0.1413" style="stop-color:#006C96;stop-opacity:0.8587"/>
				<stop  offset="0.3718" style="stop-color:#0079A5;stop-opacity:0.6282"/>
				<stop  offset="0.6627" style="stop-color:#008DBF;stop-opacity:0.3373"/>
				<stop  offset="1" style="stop-color:#29AAE1;stop-opacity:0"/>
			</radialGradient>
			<circle class="st3" cx="10.9" cy="7" r="9.7"/>
		</g>
		<g class="st4">
			<defs>
				<path id="SVGID_4_" class="st4" d="M5.7,4.7C2.6,4.7,0,0.5,0,0.5C0,0.2,0.2,0,0.5,0h10c0.3,0,0.5,0.2,0.5,0.5
					C10.9,0.5,8.8,4.7,5.7,4.7z"/>
			</defs>
			<clipPath id="SVGID_5_">
				<use xlink:href="#SVGID_4_"  style="overflow:visible;"/>
			</clipPath>
			<radialGradient id="SVGID_6_" cx="9.8857" cy="-0.602" r="9.0323" gradientUnits="userSpaceOnUse">
				<stop  offset="0" style="stop-color:#FFFFFF"/>
				<stop  offset="1" style="stop-color:#FFFFFF;stop-opacity:0"/>
			</radialGradient>
			<circle class="st5" cx="9.9" cy="-0.6" r="9"/>
		</g>
		<path class="st6" d="M10.8,0.2C9.5,2.2,7.5,4,5.5,4C4.7,4,3.8,3.7,3.1,3.1C2.5,2.7,2,2,1.8,1C1.7,1,1.6,1,1.5,1C1.2,1,1,1.3,1,1.6
			c0,0.1,0,0.1,0,0.2c0.2,1,0.7,2.1,1.7,2.8c0.7,0.6,1.7,0.9,2.7,0.9c1.8,0,3.8-1.2,5.5-4.1V0.5C10.9,0.4,10.9,0.3,10.8,0.2z"/>
	</g>
</g>
</svg>
